<?xml version="1.0" standalone="no"?><!DOCTYPE svg PUBLIC "-//W3C//DTD SVG 1.1//EN" "http://www.w3.org/Graphics/SVG/1.1/DTD/svg11.dtd"><svg t="1613059220239" class="icon" viewBox="0 0 1024 1024" version="1.1" xmlns="http://www.w3.org/2000/svg" p-id="5857" xmlns:xlink="http://www.w3.org/1999/xlink" width="64" height="64"><defs><style type="text/css"></style></defs><path d="M424.55 151.23H198.69c-26.85 0-48.69 21.84-48.69 48.7v225.86c0 26.85 21.84 48.69 48.69 48.69h225.86c26.85 0 48.7-21.84 48.7-48.69V199.93c-0.01-26.85-21.85-48.7-48.7-48.7z m-1.31 273.25H200V201.23h223.25v223.25zM826.42 151.23H600.56c-26.85 0-48.69 21.84-48.69 48.7v225.86c0 26.85 21.84 48.69 48.69 48.69h225.86c26.85 0 48.69-21.84 48.69-48.69V199.93c0-26.85-21.84-48.7-48.69-48.7z m-1.31 273.25H601.87V201.23h223.24v223.25zM424.25 552.31H198.39c-26.85 0-48.69 21.84-48.69 48.7v225.86c0 26.85 21.84 48.69 48.69 48.69h225.86c26.85 0 48.69-21.84 48.69-48.69V601.01c0-26.85-21.84-48.7-48.69-48.7z m-1.31 273.25H199.7V602.31h223.25v223.25zM826.12 552.31H600.26c-26.85 0-48.69 21.84-48.69 48.7v225.86c0 26.85 21.84 48.69 48.69 48.69h225.86c26.85 0 48.7-21.84 48.7-48.69V601.01c-0.01-26.85-21.85-48.7-48.7-48.7z m-1.31 273.25H601.57V602.31h223.25v223.25z" fill="#d81e06" p-id="5858"></path></svg>