<svg t="1613056909077" class="icon" viewBox="0 0 1024 1024" version="1.1" xmlns="http://www.w3.org/2000/svg" p-id="2351" width="64" height="64"><path d="M808.192 909.4144H214.6816c-50.1248 0-90.9312-40.8064-90.9312-90.9312V431.104c0-28.2624 13.4144-55.296 35.8912-72.3968L456.3968 133.12c32.4096-24.6272 77.6704-24.6272 110.0288 0l296.7552 225.5872c22.4768 17.1008 35.8912 44.1344 35.8912 72.3968v387.3792c0.0512 50.1248-40.7552 90.9312-90.88 90.9312zM511.4368 165.8368c-8.4992 0-16.9472 2.7136-24.064 8.0896L190.6176 399.4624a39.94624 39.94624 0 0 0-15.6672 31.6416v387.3792c0 21.9136 17.8176 39.7312 39.7312 39.7312h593.5104c21.9136 0 39.7312-17.8176 39.7312-39.7312V431.104c0-12.3392-5.8368-24.1664-15.6672-31.6416l-296.7552-225.5872a39.7824 39.7824 0 0 0-24.064-8.0384z" fill="#888888" p-id="2352"></path><path d="M643.84 714.8032H379.0336c-14.1312 0-25.6-11.4688-25.6-25.6s11.4688-25.6 25.6-25.6h264.8064c14.1312 0 25.6 11.4688 25.6 25.6s-11.4688 25.6-25.6 25.6z" fill="#888888" p-id="2353"></path></svg>
