<?xml version="1.0" standalone="no"?><!DOCTYPE svg PUBLIC "-//W3C//DTD SVG 1.1//EN" "http://www.w3.org/Graphics/SVG/1.1/DTD/svg11.dtd"><svg t="1613058770201" class="icon" viewBox="0 0 1024 1024" version="1.1" xmlns="http://www.w3.org/2000/svg" p-id="4731" xmlns:xlink="http://www.w3.org/1999/xlink" width="64" height="64"><defs><style type="text/css"></style></defs><path d="M512 142.933333c-123.733333 0-224 100.266667-224 224S388.266667 590.933333 512 590.933333 736 490.666667 736 366.933333 635.733333 142.933333 512 142.933333z m0 384c-87.466667 0-160-72.533333-160-160s72.533333-160 160-160 160 72.533333 160 160-72.533333 160-160 160z" p-id="4732"></path><path d="M512 526.933333c-181.333333 0-332.8 138.666667-349.866667 315.733334-2.133333 19.2 12.8 36.266667 32 36.266666 17.066667 0 29.866667-12.8 32-29.866666 14.933333-145.066667 136.533333-256 283.733334-256s268.8 113.066667 283.733333 256c2.133333 17.066667 14.933333 29.866667 32 29.866666 19.2 0 34.133333-17.066667 32-36.266666-14.933333-177.066667-164.266667-315.733333-345.6-315.733334z" p-id="4733"></path></svg>