<?xml version="1.0" standalone="no"?><!DOCTYPE svg PUBLIC "-//W3C//DTD SVG 1.1//EN" "http://www.w3.org/Graphics/SVG/1.1/DTD/svg11.dtd"><svg t="1613058756765" class="icon" viewBox="0 0 1024 1024" version="1.1" xmlns="http://www.w3.org/2000/svg" p-id="3938" xmlns:xlink="http://www.w3.org/1999/xlink" width="64" height="64"><defs><style type="text/css"></style></defs><path d="M760.746667 768a64 64 0 1 0 64 64 64 64 0 0 0-64-64z m0 85.333333a21.333333 21.333333 0 1 1 21.333333-21.333333 21.333333 21.333333 0 0 1-21.333333 21.333333zM887.466667 293.333333A42.666667 42.666667 0 0 0 853.333333 277.333333H292.48l-27.093333-101.76A64 64 0 0 0 203.52 128H149.333333a21.333333 21.333333 0 0 0-21.333333 21.333333 21.333333 21.333333 0 0 0 21.333333 21.333334h54.186667a21.333333 21.333333 0 0 1 21.333333 15.786666l136.96 512A64 64 0 0 0 423.04 746.666667H789.333333a21.333333 21.333333 0 1 0 0-42.666667H423.04a21.333333 21.333333 0 0 1-21.333333-15.786667l-6.4-26.88h367.36a64 64 0 0 0 62.08-48.426666L896 330.026667a42.666667 42.666667 0 0 0-8.533333-36.693334z m-104.106667 308.693334a21.333333 21.333333 0 0 1-21.333333 16.213333H385.92l-74.666667-298.666667H853.333333zM467.413333 768a64 64 0 1 0 64 64 64 64 0 0 0-64-64z m0 85.333333a21.333333 21.333333 0 1 1 21.333334-21.333333 21.333333 21.333333 0 0 1-21.333334 21.333333z" p-id="3939"></path></svg>